<svg xmlns="http://www.w3.org/2000/svg" viewBox="0 0 100 100">
  <!-- White background with rounded corners -->
  <rect width="100" height="100" fill="white" rx="18"/>

  <!-- Outer purple circle arc (broken on bottom-left like logo) -->
  <path d="M 14 55 A 36 36 0 1 1 50 88" fill="none" stroke="#9a5bff" stroke-width="5.5" stroke-linecap="round"/>

  <!-- M shape (outer dark) -->
  <path d="M 16 76 L 16 45 L 50 63 L 84 45 L 84 76" fill="none" stroke="#1a1a2e" stroke-width="7" stroke-linecap="round" stroke-linejoin="round"/>

  <!-- M shape (inner purple accent) -->
  <path d="M 23 76 L 23 50 L 50 66 L 77 50 L 77 76" fill="none" stroke="#9a5bff" stroke-width="3.5" stroke-linecap="round" stroke-linejoin="round"/>

  <!-- Location pin body -->
  <path d="M 50 8 C 43 8 37 14 37 21 C 37 29.5 50 43 50 43 C 50 43 63 29.5 63 21 C 63 14 57 8 50 8 Z" fill="#1a1a2e"/>

  <!-- Pin inner circle (purple) -->
  <circle cx="50" cy="21" r="5" fill="#9a5bff"/>
</svg>
